<?xml version="1.0" encoding="utf-8"?>
<!-- Generator: Adobe Illustrator 25.3.1, SVG Export Plug-In . SVG Version: 6.00 Build 0)  -->
<svg version="1.1" id="Layer_1" xmlns="http://www.w3.org/2000/svg" xmlns:xlink="http://www.w3.org/1999/xlink" x="0px" y="0px"
	 viewBox="0 0 310 310" style="enable-background:new 0 0 310 310;" xml:space="preserve">
<style type="text/css">
	.st0{fill:#5D99FD;}
	.st1{fill:#253D65;}
	.st2{fill:#FFFFFF;}
	.st3{fill:url(#innercircle_1_);}
</style>
<path id="lightblue" class="st0" d="M79.8,284.8C35.1,258.9,5,210.4,5,155C5,72.2,72.2,5,155,5v149.8L79.8,284.8z"/>
<path id="darkblue" class="st1" d="M230.2,284.8c44.7-26,74.8-74.4,74.8-129.8C305,72.2,237.8,5,155,5v149.8L230.2,284.8z"/>
<path id="white" class="st2" d="M229.9,284.5L155.1,155L79.9,284.9C102,297.7,127.6,305,155,305c27.4,0,53-7.3,75.1-20.1"/>
<linearGradient id="innercircle_1_" gradientUnits="userSpaceOnUse" x1="155" y1="15" x2="155" y2="295">
	<stop  offset="0" style="stop-color:#333333"/>
	<stop  offset="0.9831" style="stop-color:#1A1A1A"/>
</linearGradient>
<circle id="innercircle" class="st3" cx="155" cy="155" r="140"/>
</svg>
